<svg width="156" height="75" viewBox="0 0 156 75" fill="none" xmlns="http://www.w3.org/2000/svg">
<path d="M9.40792 44.56H0.267471V4.23375H16.3218C17.7948 4.23375 19.2118 4.42627 20.5729 4.80991C21.934 5.19425 23.2063 5.73786 24.3906 6.44075C25.5742 7.14363 26.6561 7.9871 27.6349 8.97183C28.6137 9.95587 29.4526 11.0486 30.1523 12.248C30.8512 13.4481 31.3918 14.732 31.7747 16.1004C32.157 17.4688 32.3481 18.894 32.3481 20.3752C32.3481 22.5877 31.9283 24.6736 31.0894 26.6319C30.2505 28.591 29.1038 30.3015 27.6492 31.7641C26.1946 33.2266 24.493 34.3796 22.5449 35.2231C20.5961 36.0666 18.5217 36.4883 16.3218 36.4883H9.40792V44.56ZM9.32191 13.4551V27.2815H16.2958C17.2515 27.2815 18.1504 27.1008 18.9934 26.7393C19.8357 26.3778 20.5729 25.884 21.205 25.258C21.837 24.632 22.3346 23.8973 22.6991 23.0538C23.0636 22.211 23.2459 21.3156 23.2459 20.3683C23.2459 19.4209 23.0636 18.5255 22.6991 17.6828C22.3346 16.84 21.8364 16.1053 21.205 15.4786C20.5736 14.8518 19.8357 14.3588 18.9934 13.9973C18.1511 13.6358 17.2515 13.4551 16.2958 13.4551H9.32191Z" fill="#FF2400"/>
<path d="M44.1848 44.5393H35.1665V4.21367H44.1848V44.5393Z" fill="#FF2400"/>
<path d="M72.473 44.56L58.7818 20.8738V44.56H49.7758V4.23375H59.0773L72.7201 27.8334V4.23375H81.7677V44.56H72.473Z" fill="#FF2400"/>
<path d="M110.534 34.5791C108.951 35.4301 107.145 35.9128 105.229 35.9128C98.9585 35.9128 93.8753 30.7558 93.8753 24.3945C93.8753 18.0332 98.9585 12.8761 105.229 12.8761C107.146 12.8761 108.952 13.3595 110.536 14.2106C111.842 11.4032 113.669 8.89496 115.892 6.8147C112.799 4.88539 109.158 3.77185 105.26 3.77185C94.0323 3.77185 84.9308 13.0056 84.9308 24.3966C84.9308 35.7875 94.0323 45.0213 105.26 45.0213C109.158 45.0213 112.799 43.9077 115.892 41.9784C113.667 39.8975 111.839 37.3885 110.534 34.5791Z" fill="#FF2400"/>
<path d="M131.885 3.75177C120.657 3.75177 111.556 12.9856 111.556 24.3765C111.556 35.7674 120.657 45.0012 131.885 45.0012C143.113 45.0012 152.214 35.7674 152.214 24.3765C152.214 12.9856 143.113 3.75177 131.885 3.75177ZM131.845 35.8948C125.574 35.8948 120.491 30.7378 120.491 24.3765C120.491 18.0152 125.574 12.8581 131.845 12.8581C138.115 12.8581 143.198 18.0152 143.198 24.3765C143.198 30.7378 138.115 35.8948 131.845 35.8948Z" fill="#FF2400"/>
<path d="M131.829 29.8594C134.763 29.8594 137.142 27.4463 137.142 24.4697C137.142 21.4931 134.763 19.08 131.829 19.08C128.895 19.08 126.517 21.4931 126.517 24.4697C126.517 27.4463 128.895 29.8594 131.829 29.8594Z" fill="#FF2400"/>
<path d="M155.85 7.16244C155.614 6.59075 155.055 6.2186 154.437 6.2186H149.748V1.52974C149.748 0.911789 149.376 0.353213 148.804 0.117079C148.232 -0.121817 147.575 0.0128209 147.137 0.448496L141.02 6.6667C140.734 6.95324 140.572 7.34127 140.572 7.74795V13.2308L130.214 23.5883C129.899 23.8686 129.704 24.2787 129.704 24.733C129.704 25.5775 130.389 26.2624 131.233 26.2624C131.7 26.2624 132.055 26.027 132.401 25.7259L142.734 15.3933H148.218C148.624 15.3933 149.012 15.2317 149.299 14.9452L155.518 8.82919C155.955 8.39145 156.087 7.73483 155.85 7.16244Z" fill="#04CFAA"/>
<path d="M0 62.9529C0 56.6016 5.14873 51.4529 11.5 51.4529H144.466C150.818 51.4529 155.966 56.6016 155.966 62.9529V62.9529C155.966 69.3042 150.818 74.4529 144.466 74.4529H11.5C5.14874 74.4529 0 69.3042 0 62.9529V62.9529Z" fill="#04CFAA"/>
<path d="M52.2059 65.0282C52.2574 65.0282 52.3088 65.0389 52.3603 65.0603C52.4118 65.0775 52.4611 65.1096 52.5082 65.1568L53.3701 66.0637C52.9927 66.5567 52.5189 66.9298 51.9487 67.1828C51.3827 67.4314 50.7117 67.5558 49.9356 67.5558C49.2238 67.5558 48.5849 67.4357 48.019 67.1956C47.4573 66.9512 46.9792 66.6168 46.5847 66.1923C46.1945 65.7635 45.8944 65.2576 45.6843 64.6744C45.4742 64.087 45.3691 63.4503 45.3691 62.7642C45.3691 62.0653 45.4828 61.4243 45.71 60.8412C45.9373 60.2538 46.2567 59.7478 46.6683 59.3233C47.08 58.8988 47.573 58.5687 48.1476 58.3329C48.7222 58.097 49.3546 57.9791 50.0449 57.9791C50.3965 57.9791 50.7267 58.0113 51.0354 58.0756C51.3484 58.1356 51.64 58.2214 51.9101 58.3329C52.1802 58.4401 52.4289 58.5708 52.6562 58.7252C52.8834 58.8795 53.0849 59.0468 53.2607 59.2269L52.5275 60.2109C52.4804 60.2709 52.4246 60.3267 52.3603 60.3781C52.296 60.4253 52.2059 60.4489 52.0902 60.4489C52.013 60.4489 51.9401 60.4317 51.8715 60.3974C51.8029 60.3631 51.73 60.3224 51.6528 60.2752C51.5756 60.2238 51.4899 60.1702 51.3956 60.1144C51.3055 60.0544 51.1962 60.0008 51.0675 59.9536C50.9432 59.9022 50.7953 59.8593 50.6238 59.825C50.4565 59.7907 50.2593 59.7735 50.0321 59.7735C49.6719 59.7735 49.3417 59.84 49.0416 59.9729C48.7457 60.1058 48.4885 60.3009 48.2698 60.5582C48.0554 60.8112 47.8882 61.1242 47.7681 61.4972C47.6524 61.866 47.5945 62.2883 47.5945 62.7642C47.5945 63.2445 47.6588 63.6711 47.7874 64.0441C47.9203 64.4172 48.0983 64.7323 48.3213 64.9896C48.5485 65.2426 48.8122 65.4355 49.1123 65.5684C49.4125 65.7013 49.7341 65.7678 50.0771 65.7678C50.2743 65.7678 50.4544 65.7592 50.6173 65.7421C50.7803 65.7206 50.9325 65.6885 51.074 65.6456C51.2155 65.5984 51.3484 65.5384 51.4727 65.4655C51.5971 65.3883 51.7236 65.2919 51.8522 65.1761C51.9037 65.1332 51.9594 65.0989 52.0194 65.0732C52.0795 65.0432 52.1416 65.0282 52.2059 65.0282ZM62.4872 63.8705L61.6189 61.3043C61.5546 61.1413 61.486 60.9505 61.4131 60.7319C61.3402 60.5089 61.2673 60.2688 61.1944 60.0115C61.1301 60.2731 61.0615 60.5153 60.9886 60.7383C60.9157 60.9612 60.8471 61.1542 60.7828 61.3171L59.921 63.8705H62.4872ZM65.9409 67.4529H64.2559C64.0672 67.4529 63.915 67.41 63.7992 67.3242C63.6834 67.2342 63.5955 67.1206 63.5355 66.9834L62.9824 65.3497H59.4193L58.8662 66.9834C58.819 67.1034 58.7333 67.2128 58.6089 67.3114C58.4889 67.4057 58.3388 67.4529 58.1587 67.4529H56.4608L60.0882 58.082H62.3135L65.9409 67.4529ZM75.073 59.9858C75.0087 60.0887 74.9401 60.1659 74.8672 60.2173C74.7986 60.2688 74.7086 60.2945 74.5971 60.2945C74.4985 60.2945 74.3913 60.2645 74.2755 60.2045C74.164 60.1401 74.0354 60.0694 73.8896 59.9922C73.7481 59.915 73.5852 59.8464 73.4008 59.7864C73.2164 59.7221 73.0063 59.6899 72.7705 59.6899C72.3632 59.6899 72.0587 59.7778 71.8572 59.9536C71.66 60.1251 71.5614 60.3588 71.5614 60.6547C71.5614 60.8433 71.6214 60.9998 71.7414 61.1242C71.8615 61.2485 72.018 61.3557 72.211 61.4458C72.4082 61.5358 72.6312 61.6194 72.8798 61.6966C73.1328 61.7695 73.3901 61.8531 73.6516 61.9474C73.9132 62.0375 74.1683 62.1447 74.417 62.269C74.67 62.3933 74.8929 62.552 75.0859 62.7449C75.2831 62.9379 75.4418 63.1737 75.5618 63.4524C75.6819 63.7268 75.7419 64.0591 75.7419 64.4493C75.7419 64.8824 75.6669 65.2876 75.5168 65.6649C75.3667 66.0422 75.1481 66.3724 74.8608 66.6554C74.5778 66.9341 74.2262 67.1549 73.806 67.3178C73.3901 67.4765 72.9163 67.5558 72.3846 67.5558C72.093 67.5558 71.795 67.5258 71.4906 67.4657C71.1905 67.4057 70.8989 67.3221 70.6159 67.2149C70.3329 67.1034 70.0671 66.9727 69.8184 66.8226C69.5697 66.6725 69.3532 66.5053 69.1688 66.3209L69.812 65.3047C69.8634 65.2318 69.9299 65.1718 70.0113 65.1246C70.0971 65.0732 70.1893 65.0475 70.2879 65.0475C70.4165 65.0475 70.5452 65.0882 70.6738 65.1697C70.8067 65.2511 70.9546 65.3412 71.1176 65.4398C71.2848 65.5384 71.4756 65.6284 71.69 65.7099C71.9044 65.7914 72.1574 65.8321 72.4489 65.8321C72.8434 65.8321 73.15 65.7464 73.3686 65.5749C73.5873 65.3991 73.6967 65.1225 73.6967 64.7452C73.6967 64.5265 73.6366 64.3486 73.5166 64.2114C73.3965 64.0741 73.2379 63.9605 73.0406 63.8705C72.8477 63.7804 72.6269 63.7011 72.3782 63.6325C72.1295 63.5639 71.8744 63.4889 71.6128 63.4074C71.3513 63.3216 71.0961 63.2187 70.8475 63.0987C70.5988 62.9743 70.3758 62.8135 70.1786 62.6163C69.9856 62.4148 69.8291 62.1661 69.7091 61.8702C69.589 61.5701 69.529 61.2014 69.529 60.764C69.529 60.4124 69.5997 60.0694 69.7412 59.735C69.8827 59.4005 70.0907 59.1025 70.3651 58.841C70.6395 58.5794 70.9761 58.3715 71.3748 58.2171C71.7736 58.0584 72.2303 57.9791 72.7448 57.9791C73.0321 57.9791 73.3108 58.0027 73.5809 58.0499C73.8553 58.0927 74.1147 58.1592 74.3591 58.2492C74.6035 58.335 74.8308 58.4401 75.0409 58.5644C75.2553 58.6845 75.4461 58.8217 75.6133 58.976L75.073 59.9858ZM82.4206 67.4529H80.2339V58.082H82.4206V67.4529ZM95.6253 58.082V67.4529H94.4934C94.3261 67.4529 94.1846 67.4272 94.0689 67.3757C93.9574 67.32 93.8459 67.2256 93.7344 67.0927L89.3159 61.5036C89.3331 61.6709 89.3438 61.8338 89.3481 61.9924C89.3566 62.1468 89.3609 62.2926 89.3609 62.4298V67.4529H87.4443V58.082H88.5891C88.6835 58.082 88.7628 58.0863 88.8271 58.0949C88.8914 58.1035 88.9493 58.1206 89.0008 58.1463C89.0522 58.1678 89.1015 58.1999 89.1487 58.2428C89.1959 58.2857 89.2495 58.3436 89.3095 58.4165L93.7666 64.0441C93.7451 63.864 93.7301 63.6904 93.7216 63.5232C93.713 63.3517 93.7087 63.1909 93.7087 63.0408V58.082H95.6253ZM109.856 62.7642C109.856 63.4417 109.739 64.072 109.503 64.6551C109.271 65.2383 108.943 65.7464 108.519 66.1794C108.094 66.6082 107.582 66.9448 106.982 67.1892C106.386 67.4336 105.723 67.5558 104.994 67.5558C104.265 67.5558 103.601 67.4336 103 67.1892C102.4 66.9448 101.886 66.6082 101.457 66.1794C101.032 65.7464 100.702 65.2383 100.466 64.6551C100.235 64.072 100.119 63.4417 100.119 62.7642C100.119 62.0868 100.235 61.4565 100.466 60.8733C100.702 60.2902 101.032 59.7843 101.457 59.3555C101.886 58.9267 102.4 58.5901 103 58.3457C103.601 58.1013 104.265 57.9791 104.994 57.9791C105.723 57.9791 106.386 58.1035 106.982 58.3522C107.582 58.5966 108.094 58.9331 108.519 59.3619C108.943 59.7907 109.271 60.2966 109.503 60.8798C109.739 61.4629 109.856 62.0911 109.856 62.7642ZM107.631 62.7642C107.631 62.3012 107.571 61.8853 107.451 61.5165C107.331 61.1435 107.157 60.8283 106.93 60.5711C106.707 60.3138 106.433 60.1166 106.107 59.9794C105.781 59.8421 105.41 59.7735 104.994 59.7735C104.574 59.7735 104.199 59.8421 103.869 59.9794C103.543 60.1166 103.266 60.3138 103.039 60.5711C102.816 60.8283 102.644 61.1435 102.524 61.5165C102.404 61.8853 102.344 62.3012 102.344 62.7642C102.344 63.2316 102.404 63.6518 102.524 64.0248C102.644 64.3936 102.816 64.7066 103.039 64.9638C103.266 65.2211 103.543 65.4183 103.869 65.5556C104.199 65.6885 104.574 65.7549 104.994 65.7549C105.41 65.7549 105.781 65.6885 106.107 65.5556C106.433 65.4183 106.707 65.2211 106.93 64.9638C107.157 64.7066 107.331 64.3936 107.451 64.0248C107.571 63.6518 107.631 63.2316 107.631 62.7642Z" fill="black"/>
</svg>
